<svg width="43" height="30" viewBox="0 0 43 30" fill="none" xmlns="http://www.w3.org/2000/svg">
<path d="M11.7447 14.8149C14.6882 14.8149 17.0831 12.1254 17.0831 8.81997C17.0831 5.51449 14.6882 2.82499 11.7447 2.82499C8.80115 2.82499 6.40618 5.51449 6.40618 8.81997C6.40618 12.1254 8.80115 14.8149 11.7447 14.8149ZM35.234 5.22298H20.2862C19.6963 5.22298 19.2185 5.75953 19.2185 6.42198V17.2129H4.27078V1.626C4.27078 0.963552 3.79299 0.427002 3.20309 0.427002H1.0677C0.477794 0.427002 0 0.963552 0 1.626V28.0039C0 28.6663 0.477794 29.2029 1.0677 29.2029H3.20309C3.79299 29.2029 4.27078 28.6663 4.27078 28.0039V24.4069H38.4371V28.0039C38.4371 28.6663 38.9149 29.2029 39.5048 29.2029H41.6402C42.2301 29.2029 42.7078 28.6663 42.7078 28.0039V13.6159C42.7078 8.98033 39.362 5.22298 35.234 5.22298Z" fill="#383635"/>
</svg>
