<svg width="108" height="64" viewBox="0 0 108 64" fill="none" xmlns="http://www.w3.org/2000/svg">
<path d="M0.458 60V48.084H2.024L6.29 53.736L10.484 48.084H12.05V60H10.7V50.136L6.29 55.806L1.808 50.136V60H0.458ZM18.578 60.144C17.666 60.144 16.874 59.94 16.202 59.532C15.53 59.112 15.014 58.548 14.654 57.84C14.294 57.132 14.114 56.352 14.114 55.5C14.114 54.636 14.294 53.856 14.654 53.16C15.014 52.452 15.53 51.894 16.202 51.486C16.874 51.066 17.666 50.856 18.578 50.856C19.502 50.856 20.294 51.066 20.954 51.486C21.626 51.894 22.142 52.452 22.502 53.16C22.862 53.856 23.042 54.636 23.042 55.5C23.042 56.352 22.862 57.132 22.502 57.84C22.142 58.548 21.626 59.112 20.954 59.532C20.294 59.94 19.502 60.144 18.578 60.144ZM18.578 58.92C19.25 58.92 19.814 58.764 20.27 58.452C20.738 58.14 21.092 57.726 21.332 57.21C21.572 56.682 21.692 56.112 21.692 55.5C21.692 54.876 21.572 54.306 21.332 53.79C21.092 53.274 20.738 52.86 20.27 52.548C19.814 52.236 19.25 52.08 18.578 52.08C17.918 52.08 17.354 52.236 16.886 52.548C16.418 52.86 16.064 53.274 15.824 53.79C15.584 54.306 15.464 54.876 15.464 55.5C15.464 56.112 15.584 56.682 15.824 57.21C16.064 57.726 16.418 58.14 16.886 58.452C17.354 58.764 17.918 58.92 18.578 58.92ZM24.8321 60V51H26.1821V53.214C26.2301 53.058 26.3201 52.854 26.4521 52.602C26.5961 52.338 26.8001 52.074 27.0641 51.81C27.3281 51.546 27.6581 51.324 28.0541 51.144C28.4621 50.952 28.9421 50.856 29.4941 50.856H29.5841V52.206H29.4221C28.7501 52.206 28.1681 52.392 27.6761 52.764C27.1961 53.124 26.8241 53.598 26.5601 54.186C26.3081 54.762 26.1821 55.38 26.1821 56.04V60H24.8321ZM34.8047 60.144C33.8927 60.144 33.0947 59.94 32.4107 59.532C31.7267 59.112 31.1927 58.548 30.8087 57.84C30.4367 57.132 30.2507 56.352 30.2507 55.5C30.2507 54.636 30.4307 53.856 30.7907 53.16C31.1507 52.452 31.6667 51.894 32.3387 51.486C33.0107 51.066 33.8027 50.856 34.7147 50.856C35.6387 50.856 36.4307 51.066 37.0907 51.486C37.7627 51.894 38.2787 52.452 38.6387 53.16C38.9987 53.856 39.1787 54.636 39.1787 55.5V56.04H31.6367C31.7087 56.568 31.8767 57.054 32.1407 57.498C32.4167 57.93 32.7827 58.278 33.2387 58.542C33.6947 58.794 34.2227 58.92 34.8227 58.92C35.4587 58.92 35.9927 58.782 36.4247 58.506C36.8567 58.218 37.1927 57.852 37.4327 57.408H38.9087C38.5967 58.212 38.0987 58.872 37.4147 59.388C36.7427 59.892 35.8727 60.144 34.8047 60.144ZM31.6547 54.78H37.7747C37.6547 54.012 37.3307 53.37 36.8027 52.854C36.2747 52.338 35.5787 52.08 34.7147 52.08C33.8507 52.08 33.1547 52.338 32.6267 52.854C32.1107 53.37 31.7867 54.012 31.6547 54.78ZM44.6602 63.564V51H46.0102V52.44C46.3462 51.948 46.7782 51.564 47.3062 51.288C47.8462 51 48.4882 50.856 49.2322 50.856C50.1082 50.856 50.8702 51.066 51.5182 51.486C52.1782 51.894 52.6882 52.452 53.0482 53.16C53.4082 53.856 53.5882 54.636 53.5882 55.5C53.5882 56.352 53.4082 57.132 53.0482 57.84C52.6882 58.548 52.1782 59.112 51.5182 59.532C50.8702 59.94 50.1082 60.144 49.2322 60.144C48.4882 60.144 47.8462 60 47.3062 59.712C46.7782 59.412 46.3462 59.022 46.0102 58.542V63.564H44.6602ZM49.0522 58.92C49.7242 58.92 50.2942 58.764 50.7622 58.452C51.2422 58.14 51.6082 57.726 51.8602 57.21C52.1122 56.682 52.2382 56.112 52.2382 55.5C52.2382 54.876 52.1122 54.306 51.8602 53.79C51.6082 53.274 51.2422 52.86 50.7622 52.548C50.2942 52.236 49.7242 52.08 49.0522 52.08C48.3922 52.08 47.8282 52.236 47.3602 52.548C46.8922 52.86 46.5382 53.274 46.2982 53.79C46.0582 54.306 45.9382 54.876 45.9382 55.5C45.9382 56.112 46.0582 56.682 46.2982 57.21C46.5382 57.726 46.8922 58.14 47.3602 58.452C47.8282 58.764 48.3922 58.92 49.0522 58.92ZM55.3113 49.488V47.724H56.7693V49.488H55.3113ZM55.3653 60V51H56.7153V60H55.3653ZM62.9267 60.144C62.0267 60.144 61.2467 59.94 60.5867 59.532C59.9267 59.112 59.4107 58.548 59.0387 57.84C58.6787 57.132 58.4987 56.352 58.4987 55.5C58.4987 54.636 58.6787 53.856 59.0387 53.16C59.4107 52.452 59.9267 51.894 60.5867 51.486C61.2467 51.066 62.0267 50.856 62.9267 50.856C63.9947 50.856 64.9007 51.132 65.6447 51.684C66.4007 52.236 66.9107 52.95 67.1747 53.826H65.7167C65.5127 53.31 65.1827 52.89 64.7267 52.566C64.2827 52.242 63.7427 52.08 63.1067 52.08C62.4467 52.08 61.8707 52.236 61.3787 52.548C60.8867 52.86 60.5087 53.274 60.2447 53.79C59.9807 54.306 59.8487 54.876 59.8487 55.5C59.8487 56.112 59.9807 56.682 60.2447 57.21C60.5087 57.726 60.8867 58.14 61.3787 58.452C61.8707 58.764 62.4467 58.92 63.1067 58.92C63.7427 58.92 64.2827 58.758 64.7267 58.434C65.1827 58.11 65.5127 57.69 65.7167 57.174H67.1747C66.9107 58.05 66.4007 58.764 65.6447 59.316C64.9007 59.868 63.9947 60.144 62.9267 60.144ZM69.8197 60V52.188H67.9837V51H69.8197V47.778H71.1697V51H73.2397V52.188H71.1697V60H69.8197ZM78.2288 60.144C77.6168 60.144 77.0348 60 76.4828 59.712C75.9308 59.412 75.4808 58.974 75.1328 58.398C74.7968 57.81 74.6288 57.09 74.6288 56.238V51H75.9788V56.202C75.9788 57.018 76.2128 57.678 76.6808 58.182C77.1608 58.674 77.7668 58.92 78.4988 58.92C79.0028 58.92 79.4588 58.806 79.8668 58.578C80.2748 58.338 80.5988 58.014 80.8388 57.606C81.0908 57.198 81.2168 56.724 81.2168 56.184V51H82.5668V60H81.2168V58.596C80.8928 59.028 80.4968 59.394 80.0288 59.694C79.5608 59.994 78.9608 60.144 78.2288 60.144ZM84.9141 60V51H86.2641V53.214C86.3121 53.058 86.4021 52.854 86.5341 52.602C86.6781 52.338 86.8821 52.074 87.1461 51.81C87.4101 51.546 87.7401 51.324 88.1361 51.144C88.5441 50.952 89.0241 50.856 89.5761 50.856H89.6661V52.206H89.5041C88.8321 52.206 88.2501 52.392 87.7581 52.764C87.2781 53.124 86.9061 53.598 86.6421 54.186C86.3901 54.762 86.2641 55.38 86.2641 56.04V60H84.9141ZM94.8867 60.144C93.9747 60.144 93.1767 59.94 92.4927 59.532C91.8087 59.112 91.2747 58.548 90.8907 57.84C90.5187 57.132 90.3327 56.352 90.3327 55.5C90.3327 54.636 90.5127 53.856 90.8727 53.16C91.2327 52.452 91.7487 51.894 92.4207 51.486C93.0927 51.066 93.8847 50.856 94.7967 50.856C95.7207 50.856 96.5127 51.066 97.1727 51.486C97.8447 51.894 98.3607 52.452 98.7207 53.16C99.0807 53.856 99.2607 54.636 99.2607 55.5V56.04H91.7187C91.7907 56.568 91.9587 57.054 92.2227 57.498C92.4987 57.93 92.8647 58.278 93.3207 58.542C93.7767 58.794 94.3047 58.92 94.9047 58.92C95.5407 58.92 96.0747 58.782 96.5067 58.506C96.9387 58.218 97.2747 57.852 97.5147 57.408H98.9907C98.6787 58.212 98.1807 58.872 97.4967 59.388C96.8247 59.892 95.9547 60.144 94.8867 60.144ZM91.7367 54.78H97.8567C97.7367 54.012 97.4127 53.37 96.8847 52.854C96.3567 52.338 95.6607 52.08 94.7967 52.08C93.9327 52.08 93.2367 52.338 92.7087 52.854C92.1927 53.37 91.8687 54.012 91.7367 54.78ZM104.186 60.144C103.358 60.144 102.656 60.006 102.08 59.73C101.516 59.454 101.084 59.094 100.784 58.65C100.484 58.194 100.316 57.702 100.28 57.174H101.684C101.72 57.474 101.822 57.768 101.99 58.056C102.17 58.332 102.44 58.56 102.8 58.74C103.16 58.908 103.628 58.992 104.204 58.992C104.384 58.992 104.606 58.974 104.87 58.938C105.134 58.902 105.386 58.836 105.626 58.74C105.878 58.644 106.088 58.5 106.256 58.308C106.424 58.116 106.508 57.87 106.508 57.57C106.508 57.198 106.364 56.91 106.076 56.706C105.788 56.502 105.416 56.346 104.96 56.238C104.504 56.118 104.018 56.004 103.502 55.896C102.998 55.788 102.518 55.65 102.062 55.482C101.606 55.302 101.234 55.056 100.946 54.744C100.658 54.42 100.514 53.982 100.514 53.43C100.514 52.614 100.808 51.984 101.396 51.54C101.996 51.084 102.878 50.856 104.042 50.856C104.834 50.856 105.476 50.982 105.968 51.234C106.472 51.474 106.85 51.786 107.102 52.17C107.366 52.554 107.522 52.968 107.57 53.412H106.202C106.154 53.028 105.962 52.698 105.626 52.422C105.302 52.146 104.762 52.008 104.006 52.008C102.578 52.008 101.864 52.44 101.864 53.304C101.864 53.664 102.008 53.94 102.296 54.132C102.584 54.324 102.956 54.48 103.412 54.6C103.868 54.708 104.348 54.816 104.852 54.924C105.368 55.02 105.854 55.158 106.31 55.338C106.766 55.518 107.138 55.776 107.426 56.112C107.714 56.436 107.858 56.88 107.858 57.444C107.858 58.32 107.522 58.992 106.85 59.46C106.19 59.916 105.302 60.144 104.186 60.144Z" fill="#F6F6F6"/>
<path d="M-1 62.25H108.416V63.15H-1V62.25Z" fill="#F6F6F6"/>
<path d="M71 6.5V23.2143C71 24.7522 69.6562 26 68 26H42C40.3438 26 39 24.7522 39 23.2143V6.5C39 4.96205 40.3438 3.71429 42 3.71429H47.5L48.2688 1.80491C48.7063 0.719643 49.825 0 51.075 0H58.9188C60.1688 0 61.2875 0.719643 61.725 1.80491L62.5 3.71429H68C69.6562 3.71429 71 4.96205 71 6.5ZM62.5 14.8571C62.5 11.0152 59.1375 7.89286 55 7.89286C50.8625 7.89286 47.5 11.0152 47.5 14.8571C47.5 18.6991 50.8625 21.8214 55 21.8214C59.1375 21.8214 62.5 18.6991 62.5 14.8571ZM60.5 14.8571C60.5 17.6719 58.0312 19.9643 55 19.9643C51.9688 19.9643 49.5 17.6719 49.5 14.8571C49.5 12.0424 51.9688 9.75 55 9.75C58.0312 9.75 60.5 12.0424 60.5 14.8571Z" fill="#F6F6F6"/>
</svg>
