<svg width="33" height="34" viewBox="0 0 33 34" fill="none" xmlns="http://www.w3.org/2000/svg">
<path d="M32.71 22.7214C32.1171 22.7967 30.4021 19.8712 30.4021 19.8712C30.4021 21.5651 29.572 23.7755 27.7757 25.3719C28.6422 25.6524 30.5972 26.4077 30.1322 27.232C29.7558 27.899 23.6751 27.6579 21.9197 27.4502C20.1642 27.6579 14.0835 27.899 13.7071 27.232C13.2418 26.4079 15.1949 25.6533 16.0625 25.3722C14.266 23.7759 13.4357 21.5652 13.4357 19.8712C13.4357 19.8712 11.7208 22.7967 11.1279 22.7214C10.8516 22.6863 10.4887 21.1194 11.6088 17.3333C12.1366 15.5486 12.7403 14.065 13.674 11.6168C13.5168 5.29945 16.0017 0.000324248 21.9189 0C27.7703 0.000324248 30.3127 5.19515 30.1639 11.6169C31.0961 14.0608 31.7028 15.5538 32.2292 17.3333C33.3491 21.1194 32.9863 22.6862 32.71 22.7214Z" fill="#383635"/>
<path d="M22.1729 28.2552C21.5799 28.3305 19.865 25.405 19.865 25.405C19.865 27.0989 19.0349 29.3093 17.2386 30.9057C18.1051 31.1863 20.0601 31.9415 19.595 32.7658C19.2187 33.4329 13.138 33.1917 11.3825 32.984C9.62708 33.1917 3.54642 33.4329 3.17004 32.7658C2.70471 31.9417 4.65777 31.1871 5.52541 30.906C3.7289 29.3097 2.89861 27.0991 2.89861 25.405C2.89861 25.405 1.18369 28.3305 0.590771 28.2552C0.314503 28.2201 -0.0483999 26.6532 1.07164 22.8671C1.59953 21.0824 2.20321 19.5988 3.13691 17.1506C2.97974 10.8333 5.46455 5.53414 11.3818 5.53381C17.2332 5.53414 19.7756 10.729 19.6268 17.1507C20.5589 19.5946 21.1657 21.0876 21.6921 22.8671C22.812 26.6532 22.4492 28.22 22.1729 28.2552Z" fill="#2E2B2B"/>
</svg>
