<svg width="407" height="296" viewBox="0 0 407 296" fill="none" xmlns="http://www.w3.org/2000/svg">
<g filter="url(#filter0_d_327_2062)">
<rect x="205" y="74.0435" width="198" height="65.0435" rx="4" fill="#F6F6F6"/>
<rect x="4" y="74.0435" width="198" height="65.0435" rx="4" fill="#F6F6F6"/>
<rect x="4" y="222.13" width="399" height="65.0435" rx="4" fill="#F9B554"/>
<rect x="4" y="148.087" width="399" height="65.0435" rx="4" fill="#F6F6F6"/>
<rect x="4" width="399" height="65.0435" rx="4" fill="#F6F6F6"/>
<path d="M17.782 41V26.436H19.432V32.904H27.902V26.436H29.552V41H27.902V34.51H19.432V41H17.782ZM37.4118 41.176C36.3412 41.176 35.4025 40.9267 34.5958 40.428C33.8038 39.9147 33.1878 39.2253 32.7478 38.36C32.3078 37.4947 32.0878 36.5413 32.0878 35.5C32.0878 34.444 32.3078 33.4907 32.7478 32.64C33.1878 31.7747 33.8038 31.0927 34.5958 30.594C35.4025 30.0807 36.3412 29.824 37.4118 29.824C38.3212 29.824 39.0985 30 39.7438 30.352C40.4038 30.704 40.9392 31.1807 41.3498 31.782V30H42.9998V41H41.3498V39.24C40.9392 39.8267 40.4038 40.296 39.7438 40.648C39.0985 41 38.3212 41.176 37.4118 41.176ZM37.6318 39.68C38.4532 39.68 39.1425 39.4893 39.6998 39.108C40.2718 38.7267 40.7045 38.2207 40.9978 37.59C41.2912 36.9447 41.4378 36.248 41.4378 35.5C41.4378 34.7373 41.2912 34.0407 40.9978 33.41C40.7045 32.7793 40.2718 32.2733 39.6998 31.892C39.1425 31.5107 38.4532 31.32 37.6318 31.32C36.8252 31.32 36.1285 31.5107 35.5418 31.892C34.9552 32.2733 34.5078 32.7793 34.1998 33.41C33.8918 34.0407 33.7378 34.7373 33.7378 35.5C33.7378 36.248 33.8918 36.9447 34.1998 37.59C34.5078 38.2207 34.9552 38.7267 35.5418 39.108C36.1285 39.4893 36.8252 39.68 37.6318 39.68ZM48.8458 41L44.5338 30H46.3378L49.8138 39.24L53.2678 30H55.0718L50.7818 41H48.8458ZM61.2867 41.176C60.172 41.176 59.1967 40.9267 58.3607 40.428C57.5247 39.9147 56.872 39.2253 56.4027 38.36C55.948 37.4947 55.7207 36.5413 55.7207 35.5C55.7207 34.444 55.9407 33.4907 56.3807 32.64C56.8207 31.7747 57.4513 31.0927 58.2727 30.594C59.094 30.0807 60.062 29.824 61.1767 29.824C62.306 29.824 63.274 30.0807 64.0807 30.594C64.902 31.0927 65.5327 31.7747 65.9727 32.64C66.4127 33.4907 66.6327 34.444 66.6327 35.5V36.16H57.4147C57.5027 36.8053 57.708 37.3993 58.0307 37.942C58.368 38.47 58.8153 38.8953 59.3727 39.218C59.93 39.526 60.5753 39.68 61.3087 39.68C62.086 39.68 62.7387 39.5113 63.2667 39.174C63.7947 38.822 64.2053 38.3747 64.4987 37.832H66.3027C65.9213 38.8147 65.3127 39.6213 64.4767 40.252C63.6553 40.868 62.592 41.176 61.2867 41.176ZM57.4367 34.62H64.9167C64.77 33.6813 64.374 32.8967 63.7287 32.266C63.0833 31.6353 62.2327 31.32 61.1767 31.32C60.1207 31.32 59.27 31.6353 58.6247 32.266C57.994 32.8967 57.598 33.6813 57.4367 34.62ZM68.6488 41V30H70.2988V32.706C70.3574 32.5153 70.4674 32.266 70.6288 31.958C70.8048 31.6353 71.0541 31.3127 71.3768 30.99C71.6994 30.6673 72.1028 30.396 72.5868 30.176C73.0854 29.9413 73.6721 29.824 74.3468 29.824H74.4568V31.474H74.2588C73.4374 31.474 72.7261 31.7013 72.1248 32.156C71.5381 32.596 71.0834 33.1753 70.7608 33.894C70.4528 34.598 70.2988 35.3533 70.2988 36.16V41H68.6488ZM76.9807 41V31.452H75.0887V30H76.9807V29.032C76.9807 27.8293 77.3401 26.9273 78.0587 26.326C78.7921 25.7247 79.7894 25.424 81.0507 25.424H81.1827V26.986H80.9627C80.2001 26.986 79.6207 27.162 79.2247 27.514C78.8287 27.8513 78.6307 28.4013 78.6307 29.164V30H81.1827V31.452H78.6307V41H76.9807ZM87.538 41.176C86.4233 41.176 85.4553 40.9267 84.634 40.428C83.8127 39.9147 83.182 39.2253 82.742 38.36C82.302 37.4947 82.082 36.5413 82.082 35.5C82.082 34.444 82.302 33.4907 82.742 32.64C83.182 31.7747 83.8127 31.0927 84.634 30.594C85.4553 30.0807 86.4233 29.824 87.538 29.824C88.6673 29.824 89.6353 30.0807 90.442 30.594C91.2633 31.0927 91.894 31.7747 92.334 32.64C92.774 33.4907 92.994 34.444 92.994 35.5C92.994 36.5413 92.774 37.4947 92.334 38.36C91.894 39.2253 91.2633 39.9147 90.442 40.428C89.6353 40.9267 88.6673 41.176 87.538 41.176ZM87.538 39.68C88.3593 39.68 89.0487 39.4893 89.606 39.108C90.178 38.7267 90.6107 38.2207 90.904 37.59C91.1973 36.9447 91.344 36.248 91.344 35.5C91.344 34.7373 91.1973 34.0407 90.904 33.41C90.6107 32.7793 90.178 32.2733 89.606 31.892C89.0487 31.5107 88.3593 31.32 87.538 31.32C86.7313 31.32 86.042 31.5107 85.47 31.892C84.898 32.2733 84.4653 32.7793 84.172 33.41C83.8787 34.0407 83.732 34.7373 83.732 35.5C83.732 36.248 83.8787 36.9447 84.172 37.59C84.4653 38.2207 84.898 38.7267 85.47 39.108C86.042 39.4893 86.7313 39.68 87.538 39.68ZM95.182 41V30H96.832V32.706C96.8906 32.5153 97.0006 32.266 97.162 31.958C97.338 31.6353 97.5873 31.3127 97.91 30.99C98.2326 30.6673 98.636 30.396 99.12 30.176C99.6186 29.9413 100.205 29.824 100.88 29.824H100.99V31.474H100.792C99.9706 31.474 99.2593 31.7013 98.658 32.156C98.0713 32.596 97.6166 33.1753 97.294 33.894C96.986 34.598 96.832 35.3533 96.832 36.16V41H95.182ZM107.129 41.176C106.058 41.176 105.119 40.9267 104.313 40.428C103.521 39.9147 102.905 39.2253 102.465 38.36C102.025 37.4947 101.805 36.5413 101.805 35.5C101.805 34.444 102.025 33.4907 102.465 32.64C102.905 31.7747 103.521 31.0927 104.313 30.594C105.119 30.0807 106.058 29.824 107.129 29.824C108.038 29.824 108.815 30 109.461 30.352C110.121 30.704 110.656 31.1807 111.067 31.782V25.6H112.717V41H111.067V39.24C110.656 39.8267 110.121 40.296 109.461 40.648C108.815 41 108.038 41.176 107.129 41.176ZM107.349 39.68C108.17 39.68 108.859 39.4893 109.417 39.108C109.989 38.7267 110.421 38.2207 110.715 37.59C111.008 36.9447 111.155 36.248 111.155 35.5C111.155 34.7373 111.008 34.0407 110.715 33.41C110.421 32.7793 109.989 32.2733 109.417 31.892C108.859 31.5107 108.17 31.32 107.349 31.32C106.542 31.32 105.845 31.5107 105.259 31.892C104.672 32.2733 104.225 32.7793 103.917 33.41C103.609 34.0407 103.455 34.7373 103.455 35.5C103.455 36.248 103.609 36.9447 103.917 37.59C104.225 38.2207 104.672 38.7267 105.259 39.108C105.845 39.4893 106.542 39.68 107.349 39.68ZM114.383 43.442L115.659 38.756H117.815L115.879 43.442H114.383ZM128.388 41L123.856 26.436H125.594L129.334 38.668L133.25 26.436H135.142L139.058 38.668L142.798 26.436H144.536L140.004 41H138.134L134.196 28.768L130.258 41H128.388ZM150.916 41V35.236L144.8 26.436H146.802L151.73 33.52L156.658 26.436H158.66L152.566 35.236V41H150.916Z" fill="black"/>
<path d="M22.05 188V175.02H18.97V173.436H23.7V188H22.05ZM38.9393 188.176C37.8393 188.176 36.886 187.927 36.0793 187.428C35.2726 186.915 34.642 186.225 34.1873 185.36C33.7473 184.495 33.5273 183.541 33.5273 182.5C33.5273 181.444 33.7473 180.491 34.1873 179.64C34.642 178.775 35.2726 178.093 36.0793 177.594C36.886 177.081 37.8393 176.824 38.9393 176.824C40.2446 176.824 41.352 177.161 42.2613 177.836C43.1853 178.511 43.8086 179.383 44.1313 180.454H42.3493C42.1 179.823 41.6966 179.31 41.1393 178.914C40.5966 178.518 39.9366 178.32 39.1593 178.32C38.3526 178.32 37.6486 178.511 37.0473 178.892C36.446 179.273 35.984 179.779 35.6613 180.41C35.3386 181.041 35.1773 181.737 35.1773 182.5C35.1773 183.248 35.3386 183.945 35.6613 184.59C35.984 185.221 36.446 185.727 37.0473 186.108C37.6486 186.489 38.3526 186.68 39.1593 186.68C39.9366 186.68 40.5966 186.482 41.1393 186.086C41.6966 185.69 42.1 185.177 42.3493 184.546H44.1313C43.8086 185.617 43.1853 186.489 42.2613 187.164C41.352 187.839 40.2446 188.176 38.9393 188.176ZM50.8181 188.176C49.7474 188.176 48.8088 187.927 48.0021 187.428C47.2101 186.915 46.5941 186.225 46.1541 185.36C45.7141 184.495 45.4941 183.541 45.4941 182.5C45.4941 181.444 45.7141 180.491 46.1541 179.64C46.5941 178.775 47.2101 178.093 48.0021 177.594C48.8088 177.081 49.7474 176.824 50.8181 176.824C51.7274 176.824 52.5048 177 53.1501 177.352C53.8101 177.704 54.3454 178.181 54.7561 178.782V177H56.4061V188H54.7561V186.24C54.3454 186.827 53.8101 187.296 53.1501 187.648C52.5048 188 51.7274 188.176 50.8181 188.176ZM51.0381 186.68C51.8594 186.68 52.5488 186.489 53.1061 186.108C53.6781 185.727 54.1108 185.221 54.4041 184.59C54.6974 183.945 54.8441 183.248 54.8441 182.5C54.8441 181.737 54.6974 181.041 54.4041 180.41C54.1108 179.779 53.6781 179.273 53.1061 178.892C52.5488 178.511 51.8594 178.32 51.0381 178.32C50.2314 178.32 49.5348 178.511 48.9481 178.892C48.3614 179.273 47.9141 179.779 47.6061 180.41C47.2981 181.041 47.1441 181.737 47.1441 182.5C47.1441 183.248 47.2981 183.945 47.6061 184.59C47.9141 185.221 48.3614 185.727 48.9481 186.108C49.5348 186.489 50.2314 186.68 51.0381 186.68ZM64.8481 188.176C63.9387 188.176 63.1541 188 62.4941 187.648C61.8487 187.296 61.3207 186.827 60.9101 186.24V188H59.2601V172.6H60.9101V178.782C61.3207 178.181 61.8487 177.704 62.4941 177.352C63.1541 177 63.9387 176.824 64.8481 176.824C65.9187 176.824 66.8501 177.081 67.6421 177.594C68.4487 178.093 69.0721 178.775 69.5121 179.64C69.9521 180.491 70.1721 181.444 70.1721 182.5C70.1721 183.541 69.9521 184.495 69.5121 185.36C69.0721 186.225 68.4487 186.915 67.6421 187.428C66.8501 187.927 65.9187 188.176 64.8481 188.176ZM64.6281 186.68C65.4494 186.68 66.1461 186.489 66.7181 186.108C67.3047 185.727 67.7521 185.221 68.0601 184.59C68.3681 183.945 68.5221 183.248 68.5221 182.5C68.5221 181.737 68.3681 181.041 68.0601 180.41C67.7521 179.779 67.3047 179.273 66.7181 178.892C66.1461 178.511 65.4494 178.32 64.6281 178.32C63.8214 178.32 63.1321 178.511 62.5601 178.892C61.9881 179.273 61.5554 179.779 61.2621 180.41C60.9687 181.041 60.8221 181.737 60.8221 182.5C60.8221 183.248 60.9687 183.945 61.2621 184.59C61.5554 185.221 61.9881 185.727 62.5601 186.108C63.1321 186.489 63.8214 186.68 64.6281 186.68ZM72.2781 175.152V172.996H74.0601V175.152H72.2781ZM72.3441 188V177H73.9941V188H72.3441ZM76.8558 188V177H78.5058V178.716C78.9018 178.188 79.3858 177.741 79.9578 177.374C80.5298 177.007 81.2631 176.824 82.1578 176.824C82.9204 176.824 83.6318 177.007 84.2918 177.374C84.9664 177.726 85.5091 178.261 85.9198 178.98C86.3451 179.684 86.5578 180.557 86.5578 181.598V188H84.9078V181.642C84.9078 180.645 84.6218 179.845 84.0498 179.244C83.4778 178.628 82.7371 178.32 81.8278 178.32C81.2118 178.32 80.6544 178.459 80.1558 178.738C79.6571 179.017 79.2538 179.413 78.9458 179.926C78.6524 180.425 78.5058 181.004 78.5058 181.664V188H76.8558ZM88.1287 190.442L89.4047 185.756H91.5607L89.6247 190.442H88.1287ZM103.454 188V175.02H100.374V173.436H105.104V188H103.454ZM115.614 192.356V177H117.264V178.76C117.674 178.159 118.202 177.689 118.848 177.352C119.508 177 120.292 176.824 121.202 176.824C122.272 176.824 123.204 177.081 123.996 177.594C124.802 178.093 125.426 178.775 125.866 179.64C126.306 180.491 126.526 181.444 126.526 182.5C126.526 183.541 126.306 184.495 125.866 185.36C125.426 186.225 124.802 186.915 123.996 187.428C123.204 187.927 122.272 188.176 121.202 188.176C120.292 188.176 119.508 188 118.848 187.648C118.202 187.281 117.674 186.805 117.264 186.218V192.356H115.614ZM120.982 186.68C121.803 186.68 122.5 186.489 123.072 186.108C123.658 185.727 124.106 185.221 124.414 184.59C124.722 183.945 124.876 183.248 124.876 182.5C124.876 181.737 124.722 181.041 124.414 180.41C124.106 179.779 123.658 179.273 123.072 178.892C122.5 178.511 121.803 178.32 120.982 178.32C120.175 178.32 119.486 178.511 118.914 178.892C118.342 179.273 117.909 179.779 117.616 180.41C117.322 181.041 117.176 181.737 117.176 182.5C117.176 183.248 117.322 183.945 117.616 184.59C117.909 185.221 118.342 185.727 118.914 186.108C119.486 186.489 120.175 186.68 120.982 186.68ZM133.582 188.176C132.467 188.176 131.492 187.927 130.656 187.428C129.82 186.915 129.167 186.225 128.698 185.36C128.243 184.495 128.016 183.541 128.016 182.5C128.016 181.444 128.236 180.491 128.676 179.64C129.116 178.775 129.746 178.093 130.568 177.594C131.389 177.081 132.357 176.824 133.472 176.824C134.601 176.824 135.569 177.081 136.376 177.594C137.197 178.093 137.828 178.775 138.268 179.64C138.708 180.491 138.928 181.444 138.928 182.5V183.16H129.71C129.798 183.805 130.003 184.399 130.326 184.942C130.663 185.47 131.11 185.895 131.668 186.218C132.225 186.526 132.87 186.68 133.604 186.68C134.381 186.68 135.034 186.511 135.562 186.174C136.09 185.822 136.5 185.375 136.794 184.832H138.598C138.216 185.815 137.608 186.621 136.772 187.252C135.95 187.868 134.887 188.176 133.582 188.176ZM129.732 181.62H137.212C137.065 180.681 136.669 179.897 136.024 179.266C135.378 178.635 134.528 178.32 133.472 178.32C132.416 178.32 131.565 178.635 130.92 179.266C130.289 179.897 129.893 180.681 129.732 181.62ZM140.944 188V177H142.594V179.706C142.652 179.515 142.762 179.266 142.924 178.958C143.1 178.635 143.349 178.313 143.672 177.99C143.994 177.667 144.398 177.396 144.882 177.176C145.38 176.941 145.967 176.824 146.642 176.824H146.752V178.474H146.554C145.732 178.474 145.021 178.701 144.42 179.156C143.833 179.596 143.378 180.175 143.056 180.894C142.748 181.598 142.594 182.353 142.594 183.16V188H140.944ZM152.532 188.176C151.52 188.176 150.662 188.007 149.958 187.67C149.268 187.333 148.74 186.893 148.374 186.35C148.007 185.793 147.802 185.191 147.758 184.546H149.474C149.518 184.913 149.642 185.272 149.848 185.624C150.068 185.961 150.398 186.24 150.838 186.46C151.278 186.665 151.85 186.768 152.554 186.768C152.774 186.768 153.045 186.746 153.368 186.702C153.69 186.658 153.998 186.577 154.292 186.46C154.6 186.343 154.856 186.167 155.062 185.932C155.267 185.697 155.37 185.397 155.37 185.03C155.37 184.575 155.194 184.223 154.842 183.974C154.49 183.725 154.035 183.534 153.478 183.402C152.92 183.255 152.326 183.116 151.696 182.984C151.08 182.852 150.493 182.683 149.936 182.478C149.378 182.258 148.924 181.957 148.572 181.576C148.22 181.18 148.044 180.645 148.044 179.97C148.044 178.973 148.403 178.203 149.122 177.66C149.855 177.103 150.933 176.824 152.356 176.824C153.324 176.824 154.108 176.978 154.71 177.286C155.326 177.579 155.788 177.961 156.096 178.43C156.418 178.899 156.609 179.405 156.668 179.948H154.996C154.937 179.479 154.702 179.075 154.292 178.738C153.896 178.401 153.236 178.232 152.312 178.232C150.566 178.232 149.694 178.76 149.694 179.816C149.694 180.256 149.87 180.593 150.222 180.828C150.574 181.063 151.028 181.253 151.586 181.4C152.143 181.532 152.73 181.664 153.346 181.796C153.976 181.913 154.57 182.082 155.128 182.302C155.685 182.522 156.14 182.837 156.492 183.248C156.844 183.644 157.02 184.187 157.02 184.876C157.02 185.947 156.609 186.768 155.788 187.34C154.981 187.897 153.896 188.176 152.532 188.176ZM163.915 188.176C162.8 188.176 161.832 187.927 161.011 187.428C160.19 186.915 159.559 186.225 159.119 185.36C158.679 184.495 158.459 183.541 158.459 182.5C158.459 181.444 158.679 180.491 159.119 179.64C159.559 178.775 160.19 178.093 161.011 177.594C161.832 177.081 162.8 176.824 163.915 176.824C165.044 176.824 166.012 177.081 166.819 177.594C167.64 178.093 168.271 178.775 168.711 179.64C169.151 180.491 169.371 181.444 169.371 182.5C169.371 183.541 169.151 184.495 168.711 185.36C168.271 186.225 167.64 186.915 166.819 187.428C166.012 187.927 165.044 188.176 163.915 188.176ZM163.915 186.68C164.736 186.68 165.426 186.489 165.983 186.108C166.555 185.727 166.988 185.221 167.281 184.59C167.574 183.945 167.721 183.248 167.721 182.5C167.721 181.737 167.574 181.041 167.281 180.41C166.988 179.779 166.555 179.273 165.983 178.892C165.426 178.511 164.736 178.32 163.915 178.32C163.108 178.32 162.419 178.511 161.847 178.892C161.275 179.273 160.842 179.779 160.549 180.41C160.256 181.041 160.109 181.737 160.109 182.5C160.109 183.248 160.256 183.945 160.549 184.59C160.842 185.221 161.275 185.727 161.847 186.108C162.419 186.489 163.108 186.68 163.915 186.68ZM171.559 188V177H173.209V178.716C173.605 178.188 174.089 177.741 174.661 177.374C175.233 177.007 175.966 176.824 176.861 176.824C177.624 176.824 178.335 177.007 178.995 177.374C179.67 177.726 180.212 178.261 180.623 178.98C181.048 179.684 181.261 180.557 181.261 181.598V188H179.611V181.642C179.611 180.645 179.325 179.845 178.753 179.244C178.181 178.628 177.44 178.32 176.531 178.32C175.915 178.32 175.358 178.459 174.859 178.738C174.36 179.017 173.957 179.413 173.649 179.926C173.356 180.425 173.209 181.004 173.209 181.664V188H171.559Z" fill="black"/>
<path d="M175.197 264.176C173.76 264.176 172.594 263.985 171.699 263.604C170.805 263.208 170.13 262.665 169.675 261.976C169.235 261.287 168.979 260.509 168.905 259.644H170.621C170.665 260.348 170.9 260.92 171.325 261.36C171.751 261.785 172.308 262.101 172.997 262.306C173.701 262.511 174.471 262.614 175.307 262.614C176.539 262.614 177.515 262.401 178.233 261.976C178.952 261.536 179.311 260.891 179.311 260.04C179.311 259.527 179.128 259.116 178.761 258.808C178.409 258.485 177.933 258.221 177.331 258.016C176.745 257.811 176.099 257.627 175.395 257.466C174.691 257.29 173.98 257.107 173.261 256.916C172.557 256.725 171.905 256.483 171.303 256.19C170.717 255.897 170.24 255.523 169.873 255.068C169.521 254.599 169.345 254.005 169.345 253.286C169.345 252.098 169.8 251.13 170.709 250.382C171.633 249.634 173.005 249.26 174.823 249.26C176.114 249.26 177.177 249.458 178.013 249.854C178.849 250.235 179.473 250.741 179.883 251.372C180.309 252.003 180.543 252.685 180.587 253.418H178.893C178.805 252.685 178.439 252.069 177.793 251.57C177.148 251.057 176.158 250.8 174.823 250.8C174.002 250.8 173.335 250.881 172.821 251.042C172.308 251.203 171.912 251.416 171.633 251.68C171.369 251.929 171.186 252.193 171.083 252.472C170.995 252.751 170.951 253.015 170.951 253.264C170.951 253.748 171.127 254.144 171.479 254.452C171.846 254.745 172.323 254.995 172.909 255.2C173.511 255.391 174.171 255.567 174.889 255.728C175.608 255.889 176.319 256.073 177.023 256.278C177.742 256.469 178.395 256.718 178.981 257.026C179.583 257.319 180.059 257.701 180.411 258.17C180.778 258.639 180.961 259.241 180.961 259.974C180.961 261.323 180.448 262.365 179.421 263.098C178.395 263.817 176.987 264.176 175.197 264.176ZM188.05 264.176C186.936 264.176 185.96 263.927 185.124 263.428C184.288 262.915 183.636 262.225 183.166 261.36C182.712 260.495 182.484 259.541 182.484 258.5C182.484 257.444 182.704 256.491 183.144 255.64C183.584 254.775 184.215 254.093 185.036 253.594C185.858 253.081 186.826 252.824 187.94 252.824C189.07 252.824 190.038 253.081 190.844 253.594C191.666 254.093 192.296 254.775 192.736 255.64C193.176 256.491 193.396 257.444 193.396 258.5V259.16H184.178C184.266 259.805 184.472 260.399 184.794 260.942C185.132 261.47 185.579 261.895 186.136 262.218C186.694 262.526 187.339 262.68 188.072 262.68C188.85 262.68 189.502 262.511 190.03 262.174C190.558 261.822 190.969 261.375 191.262 260.832H193.066C192.685 261.815 192.076 262.621 191.24 263.252C190.419 263.868 189.356 264.176 188.05 264.176ZM184.2 257.62H191.68C191.534 256.681 191.138 255.897 190.492 255.266C189.847 254.635 188.996 254.32 187.94 254.32C186.884 254.32 186.034 254.635 185.388 255.266C184.758 255.897 184.362 256.681 184.2 257.62ZM200.054 264.176C198.984 264.176 198.045 263.927 197.238 263.428C196.446 262.915 195.83 262.225 195.39 261.36C194.95 260.495 194.73 259.541 194.73 258.5C194.73 257.444 194.95 256.491 195.39 255.64C195.83 254.775 196.446 254.093 197.238 253.594C198.045 253.081 198.984 252.824 200.054 252.824C200.964 252.824 201.741 253 202.386 253.352C203.046 253.704 203.582 254.181 203.992 254.782V253H205.642V264H203.992V262.24C203.582 262.827 203.046 263.296 202.386 263.648C201.741 264 200.964 264.176 200.054 264.176ZM200.274 262.68C201.096 262.68 201.785 262.489 202.342 262.108C202.914 261.727 203.347 261.221 203.64 260.59C203.934 259.945 204.08 259.248 204.08 258.5C204.08 257.737 203.934 257.041 203.64 256.41C203.347 255.779 202.914 255.273 202.342 254.892C201.785 254.511 201.096 254.32 200.274 254.32C199.468 254.32 198.771 254.511 198.184 254.892C197.598 255.273 197.15 255.779 196.842 256.41C196.534 257.041 196.38 257.737 196.38 258.5C196.38 259.248 196.534 259.945 196.842 260.59C197.15 261.221 197.598 261.727 198.184 262.108C198.771 262.489 199.468 262.68 200.274 262.68ZM208.496 264V253H210.146V255.706C210.205 255.515 210.315 255.266 210.476 254.958C210.652 254.635 210.902 254.313 211.224 253.99C211.547 253.667 211.95 253.396 212.434 253.176C212.933 252.941 213.52 252.824 214.194 252.824H214.304V254.474H214.106C213.285 254.474 212.574 254.701 211.972 255.156C211.386 255.596 210.931 256.175 210.608 256.894C210.3 257.598 210.146 258.353 210.146 259.16V264H208.496ZM220.531 264.176C219.431 264.176 218.478 263.927 217.671 263.428C216.864 262.915 216.234 262.225 215.779 261.36C215.339 260.495 215.119 259.541 215.119 258.5C215.119 257.444 215.339 256.491 215.779 255.64C216.234 254.775 216.864 254.093 217.671 253.594C218.478 253.081 219.431 252.824 220.531 252.824C221.836 252.824 222.944 253.161 223.853 253.836C224.777 254.511 225.4 255.383 225.723 256.454H223.941C223.692 255.823 223.288 255.31 222.731 254.914C222.188 254.518 221.528 254.32 220.751 254.32C219.944 254.32 219.24 254.511 218.639 254.892C218.038 255.273 217.576 255.779 217.253 256.41C216.93 257.041 216.769 257.737 216.769 258.5C216.769 259.248 216.93 259.945 217.253 260.59C217.576 261.221 218.038 261.727 218.639 262.108C219.24 262.489 219.944 262.68 220.751 262.68C221.528 262.68 222.188 262.482 222.731 262.086C223.288 261.69 223.692 261.177 223.941 260.546H225.723C225.4 261.617 224.777 262.489 223.853 263.164C222.944 263.839 221.836 264.176 220.531 264.176ZM227.768 264V248.6H229.418V254.716C229.814 254.188 230.298 253.741 230.87 253.374C231.442 253.007 232.175 252.824 233.07 252.824C233.833 252.824 234.544 253.007 235.204 253.374C235.879 253.726 236.421 254.261 236.832 254.98C237.257 255.684 237.47 256.557 237.47 257.598V264H235.82V257.642C235.82 256.645 235.534 255.845 234.962 255.244C234.39 254.628 233.649 254.32 232.74 254.32C232.124 254.32 231.567 254.459 231.068 254.738C230.569 255.017 230.166 255.413 229.858 255.926C229.565 256.425 229.418 257.004 229.418 257.664V264H227.768Z" fill="black"/>
</g>
<path d="M20.308 111.096C19.516 111.096 18.832 110.916 18.256 110.556C17.68 110.188 17.236 109.696 16.924 109.08C16.62 108.464 16.468 107.78 16.468 107.028C16.468 106.276 16.62 105.592 16.924 104.976C17.236 104.36 17.68 103.872 18.256 103.512C18.832 103.144 19.516 102.96 20.308 102.96C20.908 102.96 21.448 103.068 21.928 103.284C22.408 103.492 22.816 103.78 23.152 104.148C23.488 104.516 23.74 104.944 23.908 105.432H22.96C22.76 104.944 22.444 104.556 22.012 104.268C21.58 103.98 21.036 103.836 20.38 103.836C19.74 103.836 19.192 103.98 18.736 104.268C18.288 104.548 17.948 104.928 17.716 105.408C17.484 105.888 17.368 106.428 17.368 107.028C17.368 107.62 17.484 108.16 17.716 108.648C17.948 109.128 18.288 109.512 18.736 109.8C19.192 110.08 19.74 110.22 20.38 110.22C21.036 110.22 21.58 110.076 22.012 109.788C22.444 109.5 22.76 109.112 22.96 108.624H23.908C23.74 109.104 23.488 109.532 23.152 109.908C22.816 110.276 22.408 110.568 21.928 110.784C21.448 110.992 20.908 111.096 20.308 111.096ZM25.0652 111V102.6H25.9652V111H25.0652ZM27.4901 103.992V102.816H28.4621V103.992H27.4901ZM27.5261 111V105H28.4261V111H27.5261ZM32.567 111.096C31.967 111.096 31.447 110.96 31.007 110.688C30.567 110.408 30.223 110.032 29.975 109.56C29.735 109.088 29.615 108.568 29.615 108C29.615 107.424 29.735 106.904 29.975 106.44C30.223 105.968 30.567 105.596 31.007 105.324C31.447 105.044 31.967 104.904 32.567 104.904C33.279 104.904 33.883 105.088 34.379 105.456C34.883 105.824 35.223 106.3 35.399 106.884H34.427C34.291 106.54 34.071 106.26 33.767 106.044C33.471 105.828 33.111 105.72 32.687 105.72C32.247 105.72 31.863 105.824 31.535 106.032C31.207 106.24 30.955 106.516 30.779 106.86C30.603 107.204 30.515 107.584 30.515 108C30.515 108.408 30.603 108.788 30.779 109.14C30.955 109.484 31.207 109.76 31.535 109.968C31.863 110.176 32.247 110.28 32.687 110.28C33.111 110.28 33.471 110.172 33.767 109.956C34.071 109.74 34.291 109.46 34.427 109.116H35.399C35.223 109.7 34.883 110.176 34.379 110.544C33.883 110.912 33.279 111.096 32.567 111.096ZM36.5144 111V102.6H37.4144V107.976L40.3064 105H41.5664L39.1544 107.364L41.7464 111H40.6424L38.5424 107.988L37.4144 109.104V111H36.5144ZM45.7405 111V105.792H44.5165V105H45.7405V102.852H46.6405V105H48.0205V105.792H46.6405V111H45.7405ZM51.4934 111.096C50.8854 111.096 50.3574 110.96 49.9094 110.688C49.4614 110.408 49.1174 110.032 48.8774 109.56C48.6374 109.088 48.5174 108.568 48.5174 108C48.5174 107.424 48.6374 106.904 48.8774 106.44C49.1174 105.968 49.4614 105.596 49.9094 105.324C50.3574 105.044 50.8854 104.904 51.4934 104.904C52.1094 104.904 52.6374 105.044 53.0774 105.324C53.5254 105.596 53.8694 105.968 54.1094 106.44C54.3494 106.904 54.4694 107.424 54.4694 108C54.4694 108.568 54.3494 109.088 54.1094 109.56C53.8694 110.032 53.5254 110.408 53.0774 110.688C52.6374 110.96 52.1094 111.096 51.4934 111.096ZM51.4934 110.28C51.9414 110.28 52.3174 110.176 52.6214 109.968C52.9334 109.76 53.1694 109.484 53.3294 109.14C53.4894 108.788 53.5694 108.408 53.5694 108C53.5694 107.584 53.4894 107.204 53.3294 106.86C53.1694 106.516 52.9334 106.24 52.6214 106.032C52.3174 105.824 51.9414 105.72 51.4934 105.72C51.0534 105.72 50.6774 105.824 50.3654 106.032C50.0534 106.24 49.8174 106.516 49.6574 106.86C49.4974 107.204 49.4174 107.584 49.4174 108C49.4174 108.408 49.4974 108.788 49.6574 109.14C49.8174 109.484 50.0534 109.76 50.3654 109.968C50.6774 110.176 51.0534 110.28 51.4934 110.28ZM61.1608 111.096C60.5608 111.096 60.0408 110.96 59.6008 110.688C59.1608 110.408 58.8168 110.032 58.5688 109.56C58.3288 109.088 58.2088 108.568 58.2088 108C58.2088 107.424 58.3288 106.904 58.5688 106.44C58.8168 105.968 59.1608 105.596 59.6008 105.324C60.0408 105.044 60.5608 104.904 61.1608 104.904C61.8728 104.904 62.4768 105.088 62.9728 105.456C63.4768 105.824 63.8168 106.3 63.9928 106.884H63.0208C62.8848 106.54 62.6648 106.26 62.3608 106.044C62.0648 105.828 61.7048 105.72 61.2808 105.72C60.8408 105.72 60.4568 105.824 60.1288 106.032C59.8008 106.24 59.5488 106.516 59.3728 106.86C59.1968 107.204 59.1088 107.584 59.1088 108C59.1088 108.408 59.1968 108.788 59.3728 109.14C59.5488 109.484 59.8008 109.76 60.1288 109.968C60.4568 110.176 60.8408 110.28 61.2808 110.28C61.7048 110.28 62.0648 110.172 62.3608 109.956C62.6648 109.74 62.8848 109.46 63.0208 109.116H63.9928C63.8168 109.7 63.4768 110.176 62.9728 110.544C62.4768 110.912 61.8728 111.096 61.1608 111.096ZM65.1081 111V102.6H66.0081V105.936C66.2241 105.648 66.4881 105.404 66.8001 105.204C67.1121 105.004 67.5121 104.904 68.0001 104.904C68.4161 104.904 68.8041 105.004 69.1641 105.204C69.5321 105.396 69.8281 105.688 70.0521 106.08C70.2841 106.464 70.4001 106.94 70.4001 107.508V111H69.5001V107.532C69.5001 106.988 69.3441 106.552 69.0321 106.224C68.7201 105.888 68.3161 105.72 67.8201 105.72C67.4841 105.72 67.1801 105.796 66.9081 105.948C66.6361 106.1 66.4161 106.316 66.2481 106.596C66.0881 106.868 66.0081 107.184 66.0081 107.544V111H65.1081ZM74.509 111.096C73.901 111.096 73.373 110.96 72.925 110.688C72.477 110.408 72.133 110.032 71.893 109.56C71.653 109.088 71.533 108.568 71.533 108C71.533 107.424 71.653 106.904 71.893 106.44C72.133 105.968 72.477 105.596 72.925 105.324C73.373 105.044 73.901 104.904 74.509 104.904C75.125 104.904 75.653 105.044 76.093 105.324C76.541 105.596 76.885 105.968 77.125 106.44C77.365 106.904 77.485 107.424 77.485 108C77.485 108.568 77.365 109.088 77.125 109.56C76.885 110.032 76.541 110.408 76.093 110.688C75.653 110.96 75.125 111.096 74.509 111.096ZM74.509 110.28C74.957 110.28 75.333 110.176 75.637 109.968C75.949 109.76 76.185 109.484 76.345 109.14C76.505 108.788 76.585 108.408 76.585 108C76.585 107.584 76.505 107.204 76.345 106.86C76.185 106.516 75.949 106.24 75.637 106.032C75.333 105.824 74.957 105.72 74.509 105.72C74.069 105.72 73.693 105.824 73.381 106.032C73.069 106.24 72.833 106.516 72.673 106.86C72.513 107.204 72.433 107.584 72.433 108C72.433 108.408 72.513 108.788 72.673 109.14C72.833 109.484 73.069 109.76 73.381 109.968C73.693 110.176 74.069 110.28 74.509 110.28ZM81.2824 111.096C80.6744 111.096 80.1464 110.96 79.6984 110.688C79.2504 110.408 78.9064 110.032 78.6664 109.56C78.4264 109.088 78.3064 108.568 78.3064 108C78.3064 107.424 78.4264 106.904 78.6664 106.44C78.9064 105.968 79.2504 105.596 79.6984 105.324C80.1464 105.044 80.6744 104.904 81.2824 104.904C81.8984 104.904 82.4264 105.044 82.8664 105.324C83.3144 105.596 83.6584 105.968 83.8984 106.44C84.1384 106.904 84.2584 107.424 84.2584 108C84.2584 108.568 84.1384 109.088 83.8984 109.56C83.6584 110.032 83.3144 110.408 82.8664 110.688C82.4264 110.96 81.8984 111.096 81.2824 111.096ZM81.2824 110.28C81.7304 110.28 82.1064 110.176 82.4104 109.968C82.7224 109.76 82.9584 109.484 83.1184 109.14C83.2784 108.788 83.3584 108.408 83.3584 108C83.3584 107.584 83.2784 107.204 83.1184 106.86C82.9584 106.516 82.7224 106.24 82.4104 106.032C82.1064 105.824 81.7304 105.72 81.2824 105.72C80.8424 105.72 80.4664 105.824 80.1544 106.032C79.8424 106.24 79.6064 106.516 79.4464 106.86C79.2864 107.204 79.2064 107.584 79.2064 108C79.2064 108.408 79.2864 108.788 79.4464 109.14C79.6064 109.484 79.8424 109.76 80.1544 109.968C80.4664 110.176 80.8424 110.28 81.2824 110.28ZM87.6359 111.096C87.0839 111.096 86.6159 111.004 86.2319 110.82C85.8559 110.636 85.5679 110.396 85.3679 110.1C85.1679 109.796 85.0559 109.468 85.0319 109.116H85.9679C85.9919 109.316 86.0599 109.512 86.1719 109.704C86.2919 109.888 86.4719 110.04 86.7119 110.16C86.9519 110.272 87.2639 110.328 87.6479 110.328C87.7679 110.328 87.9159 110.316 88.0919 110.292C88.2679 110.268 88.4359 110.224 88.5959 110.16C88.7639 110.096 88.9039 110 89.0159 109.872C89.1279 109.744 89.1839 109.58 89.1839 109.38C89.1839 109.132 89.0879 108.94 88.8959 108.804C88.7039 108.668 88.4559 108.564 88.1519 108.492C87.8479 108.412 87.5239 108.336 87.1799 108.264C86.8439 108.192 86.5239 108.1 86.2199 107.988C85.9159 107.868 85.6679 107.704 85.4759 107.496C85.2839 107.28 85.1879 106.988 85.1879 106.62C85.1879 106.076 85.3839 105.656 85.7759 105.36C86.1759 105.056 86.7639 104.904 87.5399 104.904C88.0679 104.904 88.4959 104.988 88.8239 105.156C89.1599 105.316 89.4119 105.524 89.5799 105.78C89.7559 106.036 89.8599 106.312 89.8919 106.608H88.9799C88.9479 106.352 88.8199 106.132 88.5959 105.948C88.3799 105.764 88.0199 105.672 87.5159 105.672C86.5639 105.672 86.0879 105.96 86.0879 106.536C86.0879 106.776 86.1839 106.96 86.3759 107.088C86.5679 107.216 86.8159 107.32 87.1199 107.4C87.4239 107.472 87.7439 107.544 88.0799 107.616C88.4239 107.68 88.7479 107.772 89.0519 107.892C89.3559 108.012 89.6039 108.184 89.7959 108.408C89.9879 108.624 90.0839 108.92 90.0839 109.296C90.0839 109.88 89.8599 110.328 89.4119 110.64C88.9719 110.944 88.3799 111.096 87.6359 111.096ZM93.9049 111.096C93.2969 111.096 92.7649 110.96 92.3089 110.688C91.8529 110.408 91.4969 110.032 91.2409 109.56C90.9929 109.088 90.8689 108.568 90.8689 108C90.8689 107.424 90.9889 106.904 91.2289 106.44C91.4689 105.968 91.8129 105.596 92.2609 105.324C92.7089 105.044 93.2369 104.904 93.8449 104.904C94.4609 104.904 94.9889 105.044 95.4289 105.324C95.8769 105.596 96.2209 105.968 96.4609 106.44C96.7009 106.904 96.8209 107.424 96.8209 108V108.36H91.7929C91.8409 108.712 91.9529 109.036 92.1289 109.332C92.3129 109.62 92.5569 109.852 92.8609 110.028C93.1649 110.196 93.5169 110.28 93.9169 110.28C94.3409 110.28 94.6969 110.188 94.9849 110.004C95.2729 109.812 95.4969 109.568 95.6569 109.272H96.6409C96.4329 109.808 96.1009 110.248 95.6449 110.592C95.1969 110.928 94.6169 111.096 93.9049 111.096ZM91.8049 107.52H95.8849C95.8049 107.008 95.5889 106.58 95.2369 106.236C94.8849 105.892 94.4209 105.72 93.8449 105.72C93.2689 105.72 92.8049 105.892 92.4529 106.236C92.1089 106.58 91.8929 107.008 91.8049 107.52ZM103.007 111.096C102.423 111.096 101.911 110.96 101.471 110.688C101.039 110.408 100.703 110.032 100.463 109.56C100.223 109.088 100.103 108.568 100.103 108C100.103 107.424 100.223 106.904 100.463 106.44C100.703 105.968 101.039 105.596 101.471 105.324C101.911 105.044 102.423 104.904 103.007 104.904C103.503 104.904 103.927 105 104.279 105.192C104.639 105.384 104.931 105.644 105.155 105.972V105H106.055V111H105.155V110.04C104.931 110.36 104.639 110.616 104.279 110.808C103.927 111 103.503 111.096 103.007 111.096ZM103.127 110.28C103.575 110.28 103.951 110.176 104.255 109.968C104.567 109.76 104.803 109.484 104.963 109.14C105.123 108.788 105.203 108.408 105.203 108C105.203 107.584 105.123 107.204 104.963 106.86C104.803 106.516 104.567 106.24 104.255 106.032C103.951 105.824 103.575 105.72 103.127 105.72C102.687 105.72 102.307 105.824 101.987 106.032C101.667 106.24 101.423 106.516 101.255 106.86C101.087 107.204 101.003 107.584 101.003 108C101.003 108.408 101.087 108.788 101.255 109.14C101.423 109.484 101.667 109.76 101.987 109.968C102.307 110.176 102.687 110.28 103.127 110.28ZM107.612 111V105H108.512V106.476C108.544 106.372 108.604 106.236 108.692 106.068C108.788 105.892 108.924 105.716 109.1 105.54C109.276 105.364 109.496 105.216 109.76 105.096C110.032 104.968 110.352 104.904 110.72 104.904H110.78V105.804H110.672C110.224 105.804 109.836 105.928 109.508 106.176C109.188 106.416 108.94 106.732 108.764 107.124C108.596 107.508 108.512 107.92 108.512 108.36V111H107.612ZM111.749 111V105H112.649V106.476C112.681 106.372 112.741 106.236 112.829 106.068C112.925 105.892 113.061 105.716 113.237 105.54C113.413 105.364 113.633 105.216 113.897 105.096C114.169 104.968 114.489 104.904 114.857 104.904H114.917V105.804H114.809C114.361 105.804 113.973 105.928 113.645 106.176C113.325 106.416 113.077 106.732 112.901 107.124C112.733 107.508 112.649 107.92 112.649 108.36V111H111.749ZM115.849 103.992V102.816H116.821V103.992H115.849ZM115.885 111V105H116.785V111H115.885ZM119.978 111L117.626 105H118.61L120.506 110.04L122.39 105H123.374L121.034 111H119.978ZM126.632 111.096C126.048 111.096 125.536 110.96 125.096 110.688C124.664 110.408 124.328 110.032 124.088 109.56C123.848 109.088 123.728 108.568 123.728 108C123.728 107.424 123.848 106.904 124.088 106.44C124.328 105.968 124.664 105.596 125.096 105.324C125.536 105.044 126.048 104.904 126.632 104.904C127.128 104.904 127.552 105 127.904 105.192C128.264 105.384 128.556 105.644 128.78 105.972V105H129.68V111H128.78V110.04C128.556 110.36 128.264 110.616 127.904 110.808C127.552 111 127.128 111.096 126.632 111.096ZM126.752 110.28C127.2 110.28 127.576 110.176 127.88 109.968C128.192 109.76 128.428 109.484 128.588 109.14C128.748 108.788 128.828 108.408 128.828 108C128.828 107.584 128.748 107.204 128.588 106.86C128.428 106.516 128.192 106.24 127.88 106.032C127.576 105.824 127.2 105.72 126.752 105.72C126.312 105.72 125.932 105.824 125.612 106.032C125.292 106.24 125.048 106.516 124.88 106.86C124.712 107.204 124.628 107.584 124.628 108C124.628 108.408 124.712 108.788 124.88 109.14C125.048 109.484 125.292 109.76 125.612 109.968C125.932 110.176 126.312 110.28 126.752 110.28ZM131.237 111V102.6H132.137V111H131.237ZM138.785 111.096C138.201 111.096 137.689 110.96 137.249 110.688C136.817 110.408 136.481 110.032 136.241 109.56C136.001 109.088 135.881 108.568 135.881 108C135.881 107.424 136.001 106.904 136.241 106.44C136.481 105.968 136.817 105.596 137.249 105.324C137.689 105.044 138.201 104.904 138.785 104.904C139.281 104.904 139.705 105 140.057 105.192C140.417 105.384 140.709 105.644 140.933 105.972V102.6H141.833V111H140.933V110.04C140.709 110.36 140.417 110.616 140.057 110.808C139.705 111 139.281 111.096 138.785 111.096ZM138.905 110.28C139.353 110.28 139.729 110.176 140.033 109.968C140.345 109.76 140.581 109.484 140.741 109.14C140.901 108.788 140.981 108.408 140.981 108C140.981 107.584 140.901 107.204 140.741 106.86C140.581 106.516 140.345 106.24 140.033 106.032C139.729 105.824 139.353 105.72 138.905 105.72C138.465 105.72 138.085 105.824 137.765 106.032C137.445 106.24 137.201 106.516 137.033 106.86C136.865 107.204 136.781 107.584 136.781 108C136.781 108.408 136.865 108.788 137.033 109.14C137.201 109.484 137.445 109.76 137.765 109.968C138.085 110.176 138.465 110.28 138.905 110.28ZM145.921 111.096C145.337 111.096 144.825 110.96 144.385 110.688C143.953 110.408 143.617 110.032 143.377 109.56C143.137 109.088 143.017 108.568 143.017 108C143.017 107.424 143.137 106.904 143.377 106.44C143.617 105.968 143.953 105.596 144.385 105.324C144.825 105.044 145.337 104.904 145.921 104.904C146.417 104.904 146.841 105 147.193 105.192C147.553 105.384 147.845 105.644 148.069 105.972V105H148.969V111H148.069V110.04C147.845 110.36 147.553 110.616 147.193 110.808C146.841 111 146.417 111.096 145.921 111.096ZM146.041 110.28C146.489 110.28 146.865 110.176 147.169 109.968C147.481 109.76 147.717 109.484 147.877 109.14C148.037 108.788 148.117 108.408 148.117 108C148.117 107.584 148.037 107.204 147.877 106.86C147.717 106.516 147.481 106.24 147.169 106.032C146.865 105.824 146.489 105.72 146.041 105.72C145.601 105.72 145.221 105.824 144.901 106.032C144.581 106.24 144.337 106.516 144.169 106.86C144.001 107.204 143.917 107.584 143.917 108C143.917 108.408 144.001 108.788 144.169 109.14C144.337 109.484 144.581 109.76 144.901 109.968C145.221 110.176 145.601 110.28 146.041 110.28ZM151.174 111V105.792H149.95V105H151.174V102.852H152.074V105H153.454V105.792H152.074V111H151.174ZM156.987 111.096C156.379 111.096 155.847 110.96 155.391 110.688C154.935 110.408 154.579 110.032 154.323 109.56C154.075 109.088 153.951 108.568 153.951 108C153.951 107.424 154.071 106.904 154.311 106.44C154.551 105.968 154.895 105.596 155.343 105.324C155.791 105.044 156.319 104.904 156.927 104.904C157.543 104.904 158.071 105.044 158.511 105.324C158.959 105.596 159.303 105.968 159.543 106.44C159.783 106.904 159.903 107.424 159.903 108V108.36H154.875C154.923 108.712 155.035 109.036 155.211 109.332C155.395 109.62 155.639 109.852 155.943 110.028C156.247 110.196 156.599 110.28 156.999 110.28C157.423 110.28 157.779 110.188 158.067 110.004C158.355 109.812 158.579 109.568 158.739 109.272H159.723C159.515 109.808 159.183 110.248 158.727 110.592C158.279 110.928 157.699 111.096 156.987 111.096ZM154.887 107.52H158.967C158.887 107.008 158.671 106.58 158.319 106.236C157.967 105.892 157.503 105.72 156.927 105.72C156.351 105.72 155.887 105.892 155.535 106.236C155.191 106.58 154.975 107.008 154.887 107.52Z" fill="black" fill-opacity="0.5"/>
<path d="M220.308 111.096C219.516 111.096 218.832 110.916 218.256 110.556C217.68 110.188 217.236 109.696 216.924 109.08C216.62 108.464 216.468 107.78 216.468 107.028C216.468 106.276 216.62 105.592 216.924 104.976C217.236 104.36 217.68 103.872 218.256 103.512C218.832 103.144 219.516 102.96 220.308 102.96C220.908 102.96 221.448 103.068 221.928 103.284C222.408 103.492 222.816 103.78 223.152 104.148C223.488 104.516 223.74 104.944 223.908 105.432H222.96C222.76 104.944 222.444 104.556 222.012 104.268C221.58 103.98 221.036 103.836 220.38 103.836C219.74 103.836 219.192 103.98 218.736 104.268C218.288 104.548 217.948 104.928 217.716 105.408C217.484 105.888 217.368 106.428 217.368 107.028C217.368 107.62 217.484 108.16 217.716 108.648C217.948 109.128 218.288 109.512 218.736 109.8C219.192 110.08 219.74 110.22 220.38 110.22C221.036 110.22 221.58 110.076 222.012 109.788C222.444 109.5 222.76 109.112 222.96 108.624H223.908C223.74 109.104 223.488 109.532 223.152 109.908C222.816 110.276 222.408 110.568 221.928 110.784C221.448 110.992 220.908 111.096 220.308 111.096ZM225.065 111V102.6H225.965V111H225.065ZM227.49 103.992V102.816H228.462V103.992H227.49ZM227.526 111V105H228.426V111H227.526ZM232.567 111.096C231.967 111.096 231.447 110.96 231.007 110.688C230.567 110.408 230.223 110.032 229.975 109.56C229.735 109.088 229.615 108.568 229.615 108C229.615 107.424 229.735 106.904 229.975 106.44C230.223 105.968 230.567 105.596 231.007 105.324C231.447 105.044 231.967 104.904 232.567 104.904C233.279 104.904 233.883 105.088 234.379 105.456C234.883 105.824 235.223 106.3 235.399 106.884H234.427C234.291 106.54 234.071 106.26 233.767 106.044C233.471 105.828 233.111 105.72 232.687 105.72C232.247 105.72 231.863 105.824 231.535 106.032C231.207 106.24 230.955 106.516 230.779 106.86C230.603 107.204 230.515 107.584 230.515 108C230.515 108.408 230.603 108.788 230.779 109.14C230.955 109.484 231.207 109.76 231.535 109.968C231.863 110.176 232.247 110.28 232.687 110.28C233.111 110.28 233.471 110.172 233.767 109.956C234.071 109.74 234.291 109.46 234.427 109.116H235.399C235.223 109.7 234.883 110.176 234.379 110.544C233.883 110.912 233.279 111.096 232.567 111.096ZM236.514 111V102.6H237.414V107.976L240.306 105H241.566L239.154 107.364L241.746 111H240.642L238.542 107.988L237.414 109.104V111H236.514ZM245.741 111V105.792H244.517V105H245.741V102.852H246.641V105H248.021V105.792H246.641V111H245.741ZM251.493 111.096C250.885 111.096 250.357 110.96 249.909 110.688C249.461 110.408 249.117 110.032 248.877 109.56C248.637 109.088 248.517 108.568 248.517 108C248.517 107.424 248.637 106.904 248.877 106.44C249.117 105.968 249.461 105.596 249.909 105.324C250.357 105.044 250.885 104.904 251.493 104.904C252.109 104.904 252.637 105.044 253.077 105.324C253.525 105.596 253.869 105.968 254.109 106.44C254.349 106.904 254.469 107.424 254.469 108C254.469 108.568 254.349 109.088 254.109 109.56C253.869 110.032 253.525 110.408 253.077 110.688C252.637 110.96 252.109 111.096 251.493 111.096ZM251.493 110.28C251.941 110.28 252.317 110.176 252.621 109.968C252.933 109.76 253.169 109.484 253.329 109.14C253.489 108.788 253.569 108.408 253.569 108C253.569 107.584 253.489 107.204 253.329 106.86C253.169 106.516 252.933 106.24 252.621 106.032C252.317 105.824 251.941 105.72 251.493 105.72C251.053 105.72 250.677 105.824 250.365 106.032C250.053 106.24 249.817 106.516 249.657 106.86C249.497 107.204 249.417 107.584 249.417 108C249.417 108.408 249.497 108.788 249.657 109.14C249.817 109.484 250.053 109.76 250.365 109.968C250.677 110.176 251.053 110.28 251.493 110.28ZM261.161 111.096C260.561 111.096 260.041 110.96 259.601 110.688C259.161 110.408 258.817 110.032 258.569 109.56C258.329 109.088 258.209 108.568 258.209 108C258.209 107.424 258.329 106.904 258.569 106.44C258.817 105.968 259.161 105.596 259.601 105.324C260.041 105.044 260.561 104.904 261.161 104.904C261.873 104.904 262.477 105.088 262.973 105.456C263.477 105.824 263.817 106.3 263.993 106.884H263.021C262.885 106.54 262.665 106.26 262.361 106.044C262.065 105.828 261.705 105.72 261.281 105.72C260.841 105.72 260.457 105.824 260.129 106.032C259.801 106.24 259.549 106.516 259.373 106.86C259.197 107.204 259.109 107.584 259.109 108C259.109 108.408 259.197 108.788 259.373 109.14C259.549 109.484 259.801 109.76 260.129 109.968C260.457 110.176 260.841 110.28 261.281 110.28C261.705 110.28 262.065 110.172 262.361 109.956C262.665 109.74 262.885 109.46 263.021 109.116H263.993C263.817 109.7 263.477 110.176 262.973 110.544C262.477 110.912 261.873 111.096 261.161 111.096ZM265.108 111V102.6H266.008V105.936C266.224 105.648 266.488 105.404 266.8 105.204C267.112 105.004 267.512 104.904 268 104.904C268.416 104.904 268.804 105.004 269.164 105.204C269.532 105.396 269.828 105.688 270.052 106.08C270.284 106.464 270.4 106.94 270.4 107.508V111H269.5V107.532C269.5 106.988 269.344 106.552 269.032 106.224C268.72 105.888 268.316 105.72 267.82 105.72C267.484 105.72 267.18 105.796 266.908 105.948C266.636 106.1 266.416 106.316 266.248 106.596C266.088 106.868 266.008 107.184 266.008 107.544V111H265.108ZM274.509 111.096C273.901 111.096 273.373 110.96 272.925 110.688C272.477 110.408 272.133 110.032 271.893 109.56C271.653 109.088 271.533 108.568 271.533 108C271.533 107.424 271.653 106.904 271.893 106.44C272.133 105.968 272.477 105.596 272.925 105.324C273.373 105.044 273.901 104.904 274.509 104.904C275.125 104.904 275.653 105.044 276.093 105.324C276.541 105.596 276.885 105.968 277.125 106.44C277.365 106.904 277.485 107.424 277.485 108C277.485 108.568 277.365 109.088 277.125 109.56C276.885 110.032 276.541 110.408 276.093 110.688C275.653 110.96 275.125 111.096 274.509 111.096ZM274.509 110.28C274.957 110.28 275.333 110.176 275.637 109.968C275.949 109.76 276.185 109.484 276.345 109.14C276.505 108.788 276.585 108.408 276.585 108C276.585 107.584 276.505 107.204 276.345 106.86C276.185 106.516 275.949 106.24 275.637 106.032C275.333 105.824 274.957 105.72 274.509 105.72C274.069 105.72 273.693 105.824 273.381 106.032C273.069 106.24 272.833 106.516 272.673 106.86C272.513 107.204 272.433 107.584 272.433 108C272.433 108.408 272.513 108.788 272.673 109.14C272.833 109.484 273.069 109.76 273.381 109.968C273.693 110.176 274.069 110.28 274.509 110.28ZM281.282 111.096C280.674 111.096 280.146 110.96 279.698 110.688C279.25 110.408 278.906 110.032 278.666 109.56C278.426 109.088 278.306 108.568 278.306 108C278.306 107.424 278.426 106.904 278.666 106.44C278.906 105.968 279.25 105.596 279.698 105.324C280.146 105.044 280.674 104.904 281.282 104.904C281.898 104.904 282.426 105.044 282.866 105.324C283.314 105.596 283.658 105.968 283.898 106.44C284.138 106.904 284.258 107.424 284.258 108C284.258 108.568 284.138 109.088 283.898 109.56C283.658 110.032 283.314 110.408 282.866 110.688C282.426 110.96 281.898 111.096 281.282 111.096ZM281.282 110.28C281.73 110.28 282.106 110.176 282.41 109.968C282.722 109.76 282.958 109.484 283.118 109.14C283.278 108.788 283.358 108.408 283.358 108C283.358 107.584 283.278 107.204 283.118 106.86C282.958 106.516 282.722 106.24 282.41 106.032C282.106 105.824 281.73 105.72 281.282 105.72C280.842 105.72 280.466 105.824 280.154 106.032C279.842 106.24 279.606 106.516 279.446 106.86C279.286 107.204 279.206 107.584 279.206 108C279.206 108.408 279.286 108.788 279.446 109.14C279.606 109.484 279.842 109.76 280.154 109.968C280.466 110.176 280.842 110.28 281.282 110.28ZM287.636 111.096C287.084 111.096 286.616 111.004 286.232 110.82C285.856 110.636 285.568 110.396 285.368 110.1C285.168 109.796 285.056 109.468 285.032 109.116H285.968C285.992 109.316 286.06 109.512 286.172 109.704C286.292 109.888 286.472 110.04 286.712 110.16C286.952 110.272 287.264 110.328 287.648 110.328C287.768 110.328 287.916 110.316 288.092 110.292C288.268 110.268 288.436 110.224 288.596 110.16C288.764 110.096 288.904 110 289.016 109.872C289.128 109.744 289.184 109.58 289.184 109.38C289.184 109.132 289.088 108.94 288.896 108.804C288.704 108.668 288.456 108.564 288.152 108.492C287.848 108.412 287.524 108.336 287.18 108.264C286.844 108.192 286.524 108.1 286.22 107.988C285.916 107.868 285.668 107.704 285.476 107.496C285.284 107.28 285.188 106.988 285.188 106.62C285.188 106.076 285.384 105.656 285.776 105.36C286.176 105.056 286.764 104.904 287.54 104.904C288.068 104.904 288.496 104.988 288.824 105.156C289.16 105.316 289.412 105.524 289.58 105.78C289.756 106.036 289.86 106.312 289.892 106.608H288.98C288.948 106.352 288.82 106.132 288.596 105.948C288.38 105.764 288.02 105.672 287.516 105.672C286.564 105.672 286.088 105.96 286.088 106.536C286.088 106.776 286.184 106.96 286.376 107.088C286.568 107.216 286.816 107.32 287.12 107.4C287.424 107.472 287.744 107.544 288.08 107.616C288.424 107.68 288.748 107.772 289.052 107.892C289.356 108.012 289.604 108.184 289.796 108.408C289.988 108.624 290.084 108.92 290.084 109.296C290.084 109.88 289.86 110.328 289.412 110.64C288.972 110.944 288.38 111.096 287.636 111.096ZM293.905 111.096C293.297 111.096 292.765 110.96 292.309 110.688C291.853 110.408 291.497 110.032 291.241 109.56C290.993 109.088 290.869 108.568 290.869 108C290.869 107.424 290.989 106.904 291.229 106.44C291.469 105.968 291.813 105.596 292.261 105.324C292.709 105.044 293.237 104.904 293.845 104.904C294.461 104.904 294.989 105.044 295.429 105.324C295.877 105.596 296.221 105.968 296.461 106.44C296.701 106.904 296.821 107.424 296.821 108V108.36H291.793C291.841 108.712 291.953 109.036 292.129 109.332C292.313 109.62 292.557 109.852 292.861 110.028C293.165 110.196 293.517 110.28 293.917 110.28C294.341 110.28 294.697 110.188 294.985 110.004C295.273 109.812 295.497 109.568 295.657 109.272H296.641C296.433 109.808 296.101 110.248 295.645 110.592C295.197 110.928 294.617 111.096 293.905 111.096ZM291.805 107.52H295.885C295.805 107.008 295.589 106.58 295.237 106.236C294.885 105.892 294.421 105.72 293.845 105.72C293.269 105.72 292.805 105.892 292.453 106.236C292.109 106.58 291.893 107.008 291.805 107.52ZM303.007 111.096C302.423 111.096 301.911 110.96 301.471 110.688C301.039 110.408 300.703 110.032 300.463 109.56C300.223 109.088 300.103 108.568 300.103 108C300.103 107.424 300.223 106.904 300.463 106.44C300.703 105.968 301.039 105.596 301.471 105.324C301.911 105.044 302.423 104.904 303.007 104.904C303.503 104.904 303.927 105 304.279 105.192C304.639 105.384 304.931 105.644 305.155 105.972V102.6H306.055V111H305.155V110.04C304.931 110.36 304.639 110.616 304.279 110.808C303.927 111 303.503 111.096 303.007 111.096ZM303.127 110.28C303.575 110.28 303.951 110.176 304.255 109.968C304.567 109.76 304.803 109.484 304.963 109.14C305.123 108.788 305.203 108.408 305.203 108C305.203 107.584 305.123 107.204 304.963 106.86C304.803 106.516 304.567 106.24 304.255 106.032C303.951 105.824 303.575 105.72 303.127 105.72C302.687 105.72 302.307 105.824 301.987 106.032C301.667 106.24 301.423 106.516 301.255 106.86C301.087 107.204 301.003 107.584 301.003 108C301.003 108.408 301.087 108.788 301.255 109.14C301.423 109.484 301.667 109.76 301.987 109.968C302.307 110.176 302.687 110.28 303.127 110.28ZM310.276 111.096C309.668 111.096 309.136 110.96 308.68 110.688C308.224 110.408 307.868 110.032 307.612 109.56C307.364 109.088 307.24 108.568 307.24 108C307.24 107.424 307.36 106.904 307.6 106.44C307.84 105.968 308.184 105.596 308.632 105.324C309.08 105.044 309.608 104.904 310.216 104.904C310.832 104.904 311.36 105.044 311.8 105.324C312.248 105.596 312.592 105.968 312.832 106.44C313.072 106.904 313.192 107.424 313.192 108V108.36H308.164C308.212 108.712 308.324 109.036 308.5 109.332C308.684 109.62 308.928 109.852 309.232 110.028C309.536 110.196 309.888 110.28 310.288 110.28C310.712 110.28 311.068 110.188 311.356 110.004C311.644 109.812 311.868 109.568 312.028 109.272H313.012C312.804 109.808 312.472 110.248 312.016 110.592C311.568 110.928 310.988 111.096 310.276 111.096ZM308.176 107.52H312.256C312.176 107.008 311.96 106.58 311.608 106.236C311.256 105.892 310.792 105.72 310.216 105.72C309.64 105.72 309.176 105.892 308.824 106.236C308.48 106.58 308.264 107.008 308.176 107.52ZM314.292 113.376V105H315.192V105.96C315.416 105.632 315.704 105.376 316.056 105.192C316.416 105 316.844 104.904 317.34 104.904C317.924 104.904 318.432 105.044 318.864 105.324C319.304 105.596 319.644 105.968 319.884 106.44C320.124 106.904 320.244 107.424 320.244 108C320.244 108.568 320.124 109.088 319.884 109.56C319.644 110.032 319.304 110.408 318.864 110.688C318.432 110.96 317.924 111.096 317.34 111.096C316.844 111.096 316.416 111 316.056 110.808C315.704 110.608 315.416 110.348 315.192 110.028V113.376H314.292ZM317.22 110.28C317.668 110.28 318.048 110.176 318.36 109.968C318.68 109.76 318.924 109.484 319.092 109.14C319.26 108.788 319.344 108.408 319.344 108C319.344 107.584 319.26 107.204 319.092 106.86C318.924 106.516 318.68 106.24 318.36 106.032C318.048 105.824 317.668 105.72 317.22 105.72C316.78 105.72 316.404 105.824 316.092 106.032C315.78 106.24 315.544 106.516 315.384 106.86C315.224 107.204 315.144 107.584 315.144 108C315.144 108.408 315.224 108.788 315.384 109.14C315.544 109.484 315.78 109.76 316.092 109.968C316.404 110.176 316.78 110.28 317.22 110.28ZM323.96 111.096C323.376 111.096 322.864 110.96 322.424 110.688C321.992 110.408 321.656 110.032 321.416 109.56C321.176 109.088 321.056 108.568 321.056 108C321.056 107.424 321.176 106.904 321.416 106.44C321.656 105.968 321.992 105.596 322.424 105.324C322.864 105.044 323.376 104.904 323.96 104.904C324.456 104.904 324.88 105 325.232 105.192C325.592 105.384 325.884 105.644 326.108 105.972V105H327.008V111H326.108V110.04C325.884 110.36 325.592 110.616 325.232 110.808C324.88 111 324.456 111.096 323.96 111.096ZM324.08 110.28C324.528 110.28 324.904 110.176 325.208 109.968C325.52 109.76 325.756 109.484 325.916 109.14C326.076 108.788 326.156 108.408 326.156 108C326.156 107.584 326.076 107.204 325.916 106.86C325.756 106.516 325.52 106.24 325.208 106.032C324.904 105.824 324.528 105.72 324.08 105.72C323.64 105.72 323.26 105.824 322.94 106.032C322.62 106.24 322.376 106.516 322.208 106.86C322.04 107.204 321.956 107.584 321.956 108C321.956 108.408 322.04 108.788 322.208 109.14C322.376 109.484 322.62 109.76 322.94 109.968C323.26 110.176 323.64 110.28 324.08 110.28ZM328.565 111V105H329.465V106.476C329.497 106.372 329.557 106.236 329.645 106.068C329.741 105.892 329.877 105.716 330.053 105.54C330.229 105.364 330.449 105.216 330.713 105.096C330.985 104.968 331.305 104.904 331.673 104.904H331.733V105.804H331.625C331.177 105.804 330.789 105.928 330.461 106.176C330.141 106.416 329.893 106.732 329.717 107.124C329.549 107.508 329.465 107.92 329.465 108.36V111H328.565ZM333.35 111V105.792H332.126V105H333.35V102.852H334.25V105H335.63V105.792H334.25V111H333.35ZM338.956 111.096C338.548 111.096 338.16 111 337.792 110.808C337.424 110.608 337.124 110.316 336.892 109.932C336.668 109.54 336.556 109.06 336.556 108.492V105H337.456V108.468C337.456 109.012 337.612 109.452 337.924 109.788C338.244 110.116 338.648 110.28 339.136 110.28C339.472 110.28 339.776 110.204 340.048 110.052C340.32 109.892 340.536 109.676 340.696 109.404C340.864 109.132 340.948 108.816 340.948 108.456V105H341.848V111H340.948V110.064C340.732 110.352 340.468 110.596 340.156 110.796C339.844 110.996 339.444 111.096 338.956 111.096ZM343.413 111V105H344.313V106.476C344.345 106.372 344.405 106.236 344.493 106.068C344.589 105.892 344.725 105.716 344.901 105.54C345.077 105.364 345.297 105.216 345.561 105.096C345.833 104.968 346.153 104.904 346.521 104.904H346.581V105.804H346.473C346.025 105.804 345.637 105.928 345.309 106.176C344.989 106.416 344.741 106.732 344.565 107.124C344.397 107.508 344.313 107.92 344.313 108.36V111H343.413ZM350.061 111.096C349.453 111.096 348.921 110.96 348.465 110.688C348.009 110.408 347.653 110.032 347.397 109.56C347.149 109.088 347.025 108.568 347.025 108C347.025 107.424 347.145 106.904 347.385 106.44C347.625 105.968 347.969 105.596 348.417 105.324C348.865 105.044 349.393 104.904 350.001 104.904C350.617 104.904 351.145 105.044 351.585 105.324C352.033 105.596 352.377 105.968 352.617 106.44C352.857 106.904 352.977 107.424 352.977 108V108.36H347.949C347.997 108.712 348.109 109.036 348.285 109.332C348.469 109.62 348.713 109.852 349.017 110.028C349.321 110.196 349.673 110.28 350.073 110.28C350.497 110.28 350.853 110.188 351.141 110.004C351.429 109.812 351.653 109.568 351.813 109.272H352.797C352.589 109.808 352.257 110.248 351.801 110.592C351.353 110.928 350.773 111.096 350.061 111.096ZM347.961 107.52H352.041C351.961 107.008 351.745 106.58 351.393 106.236C351.041 105.892 350.577 105.72 350.001 105.72C349.425 105.72 348.961 105.892 348.609 106.236C348.265 106.58 348.049 107.008 347.961 107.52ZM359.164 111.096C358.58 111.096 358.068 110.96 357.628 110.688C357.196 110.408 356.86 110.032 356.62 109.56C356.38 109.088 356.26 108.568 356.26 108C356.26 107.424 356.38 106.904 356.62 106.44C356.86 105.968 357.196 105.596 357.628 105.324C358.068 105.044 358.58 104.904 359.164 104.904C359.66 104.904 360.084 105 360.436 105.192C360.796 105.384 361.088 105.644 361.312 105.972V102.6H362.212V111H361.312V110.04C361.088 110.36 360.796 110.616 360.436 110.808C360.084 111 359.66 111.096 359.164 111.096ZM359.284 110.28C359.732 110.28 360.108 110.176 360.412 109.968C360.724 109.76 360.96 109.484 361.12 109.14C361.28 108.788 361.36 108.408 361.36 108C361.36 107.584 361.28 107.204 361.12 106.86C360.96 106.516 360.724 106.24 360.412 106.032C360.108 105.824 359.732 105.72 359.284 105.72C358.844 105.72 358.464 105.824 358.144 106.032C357.824 106.24 357.58 106.516 357.412 106.86C357.244 107.204 357.16 107.584 357.16 108C357.16 108.408 357.244 108.788 357.412 109.14C357.58 109.484 357.824 109.76 358.144 109.968C358.464 110.176 358.844 110.28 359.284 110.28ZM366.3 111.096C365.716 111.096 365.204 110.96 364.764 110.688C364.332 110.408 363.996 110.032 363.756 109.56C363.516 109.088 363.396 108.568 363.396 108C363.396 107.424 363.516 106.904 363.756 106.44C363.996 105.968 364.332 105.596 364.764 105.324C365.204 105.044 365.716 104.904 366.3 104.904C366.796 104.904 367.22 105 367.572 105.192C367.932 105.384 368.224 105.644 368.448 105.972V105H369.348V111H368.448V110.04C368.224 110.36 367.932 110.616 367.572 110.808C367.22 111 366.796 111.096 366.3 111.096ZM366.42 110.28C366.868 110.28 367.244 110.176 367.548 109.968C367.86 109.76 368.096 109.484 368.256 109.14C368.416 108.788 368.496 108.408 368.496 108C368.496 107.584 368.416 107.204 368.256 106.86C368.096 106.516 367.86 106.24 367.548 106.032C367.244 105.824 366.868 105.72 366.42 105.72C365.98 105.72 365.6 105.824 365.28 106.032C364.96 106.24 364.716 106.516 364.548 106.86C364.38 107.204 364.296 107.584 364.296 108C364.296 108.408 364.38 108.788 364.548 109.14C364.716 109.484 364.96 109.76 365.28 109.968C365.6 110.176 365.98 110.28 366.42 110.28ZM371.553 111V105.792H370.329V105H371.553V102.852H372.453V105H373.833V105.792H372.453V111H371.553ZM377.366 111.096C376.758 111.096 376.226 110.96 375.77 110.688C375.314 110.408 374.958 110.032 374.702 109.56C374.454 109.088 374.33 108.568 374.33 108C374.33 107.424 374.45 106.904 374.69 106.44C374.93 105.968 375.274 105.596 375.722 105.324C376.17 105.044 376.698 104.904 377.306 104.904C377.922 104.904 378.45 105.044 378.89 105.324C379.338 105.596 379.682 105.968 379.922 106.44C380.162 106.904 380.282 107.424 380.282 108V108.36H375.254C375.302 108.712 375.414 109.036 375.59 109.332C375.774 109.62 376.018 109.852 376.322 110.028C376.626 110.196 376.978 110.28 377.378 110.28C377.802 110.28 378.158 110.188 378.446 110.004C378.734 109.812 378.958 109.568 379.118 109.272H380.102C379.894 109.808 379.562 110.248 379.106 110.592C378.658 110.928 378.078 111.096 377.366 111.096ZM375.266 107.52H379.346C379.266 107.008 379.05 106.58 378.698 106.236C378.346 105.892 377.882 105.72 377.306 105.72C376.73 105.72 376.266 105.892 375.914 106.236C375.57 106.58 375.354 107.008 375.266 107.52Z" fill="black" fill-opacity="0.5"/>
<defs>
<filter id="filter0_d_327_2062" x="0" y="0" width="407" height="295.174" filterUnits="userSpaceOnUse" color-interpolation-filters="sRGB">
<feFlood flood-opacity="0" result="BackgroundImageFix"/>
<feColorMatrix in="SourceAlpha" type="matrix" values="0 0 0 0 0 0 0 0 0 0 0 0 0 0 0 0 0 0 127 0" result="hardAlpha"/>
<feOffset dy="4"/>
<feGaussianBlur stdDeviation="2"/>
<feComposite in2="hardAlpha" operator="out"/>
<feColorMatrix type="matrix" values="0 0 0 0 0 0 0 0 0 0 0 0 0 0 0 0 0 0 0.25 0"/>
<feBlend mode="normal" in2="BackgroundImageFix" result="effect1_dropShadow_327_2062"/>
<feBlend mode="normal" in="SourceGraphic" in2="effect1_dropShadow_327_2062" result="shape"/>
</filter>
</defs>
</svg>
