<svg width="42" height="31" viewBox="0 0 42 31" fill="none" xmlns="http://www.w3.org/2000/svg">
<path d="M41.0859 8.49996C29.6801 -2.8354 11.9408 -2.83125 0.539542 8.49996C0.110786 8.92607 0.102417 9.64754 0.517009 10.0896L2.7213 12.4394C3.11658 12.8613 3.75263 12.8703 4.16336 12.4656C13.5574 3.21861 28.0668 3.21654 37.4627 12.4656C37.8734 12.8703 38.5095 12.8606 38.9048 12.4394L41.1091 10.0896C41.523 9.64754 41.5146 8.92607 41.0859 8.49996ZM20.8127 22.1353C18.537 22.1353 16.6925 24.1171 16.6925 26.5624C16.6925 29.0076 18.537 30.9894 20.8127 30.9894C23.0885 30.9894 24.9329 29.0076 24.9329 26.5624C24.9329 24.1171 23.0885 22.1353 20.8127 22.1353ZM33.8601 16.3532C26.44 9.30237 15.1771 9.30998 7.76529 16.3532C7.32109 16.7751 7.30692 17.5077 7.7286 17.9545L9.94576 20.3057C10.332 20.7152 10.9539 20.7429 11.3653 20.361C16.7698 15.3412 24.8679 15.3522 30.2595 20.361C30.6709 20.7429 31.2928 20.7159 31.679 20.3057L33.8962 17.9545C34.3185 17.5077 34.3037 16.7744 33.8601 16.3532Z" fill="#383635"/>
</svg>
